


I Melt with You 2011 HDRip XviD SeT-CM8


When four 40-something college friends meet up for their annual reunion, things start to spiral out of control, 
and a pact they made as young men is revisited. 

 
http://www.imdb.com/title/tt1691920/

CM8 Doing It Right The First Time 

source - I.Melt.with.You.2011.HDRip.XviD-OCW  thank you

General
Complete name                    : I.Melt.with.You.2011.HDRip.XviD-SeT.CM8.avi
Format                           : AVI
Format/Info                      : Audio Video Interleave
File size                        : 1.34 GiB
Duration                         : 2h 2mn
Overall bit rate                 : 1 567 Kbps

Video
ID                               : 0
Format                           : MPEG-4 Visual
Format profile                   : Advanced Simple@L5
Format settings, BVOP            : 2
Format settings, QPel            : No
Format settings, GMC             : No warppoints
Format settings, Matrix          : Default (H.263)
Codec ID                         : XVID
Codec ID/Hint                    : XviD
Duration                         : 2h 2mn
Bit rate                         : 1 365 Kbps
Width                            : 720 pixels
Height                           : 304 pixels
Display aspect ratio             : 2.35:1
Frame rate                       : 25.000 fps
Color space                      : YUV
Chroma subsampling               : 4:2:0
Bit depth                        : 8 bits
Scan type                        : Progressive
Compression mode                 : Lossy
Bits/(Pixel*Frame)               : 0.249
Stream size                      : 1.17 GiB (87%)
Writing library                  : XviD 1.2.1 (UTC 2008-12-04)

Audio
ID                               : 1
Format                           : AC-3
Format/Info                      : Audio Coding 3
Mode extension                   : CM (complete main)
Codec ID                         : 2000
Duration                         : 2h 2mn
Bit rate mode                    : Constant
Bit rate                         : 192 Kbps
Channel(s)                       : 2 channels
Channel positions                : Front: L R
Sampling rate                    : 44.1 KHz
Bit depth                        : 16 bits
Compression mode                 : Lossy
Delay relative to video          : 34ms
Stream size                      : 168 MiB (12%)
Alignment                        : Split accross interleaves
Interleave, duration             : 35 ms (0.87 video frame)
